<svg width="420" height="96" viewBox="0 0 420 96" fill="none" xmlns="http://www.w3.org/2000/svg">
  <rect width="420" height="96" rx="18" fill="transparent"/>
  <path d="M20 73V22h23.4c8.6 0 15.2 2 19.9 5.9 4.7 3.9 7.1 9.5 7.1 16.7 0 5.1-1.3 9.4-4 12.9-2.7 3.5-6.5 6-11.5 7.6L72 73H57.4L42.8 56.8H33.2V73H20Zm13.2-26.5H43c4.7 0 8.2-.9 10.5-2.6 2.3-1.8 3.4-4.4 3.4-8s-1.2-6.2-3.5-7.9c-2.4-1.7-6-2.5-10.8-2.5h-9.4v21Z" fill="#4B36D7"/>
  <path d="M96.4 73.8c-5 0-9.1-1.3-12.3-3.8-3.2-2.6-4.8-6.1-4.8-10.6 0-4.8 1.8-8.6 5.5-11.2 3.7-2.6 9-3.9 15.8-3.9h11.3v-1.1c0-2.6-.8-4.7-2.3-6.1-1.6-1.5-3.8-2.2-6.8-2.2-2.5 0-4.9.5-7.2 1.5-2.3 1-4.6 2.5-6.9 4.5L82.8 33c3-2.7 6.3-4.7 9.8-6 3.6-1.3 7.5-1.9 11.7-1.9 6.5 0 11.5 1.5 15 4.6 3.5 3 5.2 7.4 5.2 13.1V73h-12.8v-5c-2.1 2-4.3 3.5-6.7 4.4-2.3.9-5.2 1.4-8.6 1.4Zm3.7-9.5c3.2 0 5.8-.8 8-2.3 2.1-1.6 3.2-3.7 3.2-6.3v-3.9H102c-3.4 0-6 .5-7.8 1.5-1.8 1-2.7 2.5-2.7 4.6 0 1.9.7 3.4 2.2 4.6 1.5 1.2 3.6 1.8 6.4 1.8Z" fill="#FF3C39"/>
  <path d="M136.3 73V26h12.8v8.7c1.6-3 3.7-5.2 6.3-6.8 2.6-1.6 5.7-2.4 9.2-2.4 4.9 0 8.7 1.5 11.5 4.4 2.8 2.9 4.2 7 4.2 12.3V73h-12.8V46.1c0-3-.7-5.3-2.1-6.8-1.4-1.6-3.4-2.4-6.1-2.4-3.1 0-5.5 1-7.3 2.9-1.8 1.9-2.7 4.4-2.7 7.5V73h-13Z" fill="#4B36D7"/>
  <path d="M191.7 73V20h13v28.7L218.9 26h14.8l-18 22.2L234.7 73H220l-11.4-16.5-3.9 4.7V73h-13Z" fill="#FF3C39"/>
  <path d="M241 73V20.8h38.8v11.3h-25.3v9.5h22.9v11H254.5v9.3h26V73H241Z" fill="#4B36D7"/>
  <path d="M302.8 73.9c-4.2 0-8.2-.7-12-2-3.8-1.4-7.4-3.4-10.8-6.1l5.2-9.2c3.1 2.3 6.1 4 9 5.1 2.9 1.1 5.8 1.7 8.8 1.7 2.2 0 4-.4 5.2-1.1 1.2-.7 1.8-1.7 1.8-3 0-1.4-.8-2.5-2.3-3.3-1.5-.8-4-1.5-7.4-2.3-6.5-1.4-11.1-3.1-13.9-5.3-2.8-2.1-4.2-5.3-4.2-9.4 0-4.3 1.7-7.8 5-10.4 3.3-2.6 7.8-3.9 13.4-3.9 3.8 0 7.4.6 10.8 1.8 3.4 1.2 6.6 3 9.6 5.4l-5.6 9.5c-5.4-3.8-10.3-5.8-14.6-5.8-1.9 0-3.3.3-4.4 1-1 .7-1.6 1.5-1.6 2.6 0 1.2.7 2.2 2.2 2.9 1.5.7 3.8 1.4 7.1 2.1 6.7 1.4 11.5 3.3 14.4 5.5 2.9 2.2 4.3 5.4 4.3 9.5 0 4.8-1.8 8.5-5.4 11.2-3.6 2.7-8.5 4.1-14.8 4.1Z" fill="#4B36D7"/>
  <circle cx="364" cy="48" r="28" stroke="#FF3C39" stroke-width="9"/>
  <path d="M348 54l11 11 22-28" stroke="#4B36D7" stroke-width="8" stroke-linecap="round" stroke-linejoin="round"/>
  <path d="M379 12h21v21" stroke="#4B36D7" stroke-width="8" stroke-linecap="round"/>
  <path d="M381 31 399 13" stroke="#4B36D7" stroke-width="8" stroke-linecap="round"/>
</svg>
